<svg xmlns="http://www.w3.org/2000/svg" version="1.1" xmlns:xlink="http://www.w3.org/1999/xlink" width="64" height="64"><svg xmlns="http://www.w3.org/2000/svg" viewBox="0 0 64 64">
  <!-- Cute cat face - solid color style -->
  <!-- Head -->
  <circle cx="32" cy="32" r="28" fill="#ff7fbf"></circle>
  
  <!-- Ears -->
  <path d="M20 12 L28 24 L24 24 Z" fill="#ff7fbf"></path>
  <path d="M44 12 L36 24 L40 24 Z" fill="#ff7fbf"></path>
  <path d="M20 12 L26 20 L24 20 Z" fill="#ffb3d6"></path>
  <path d="M44 12 L38 20 L40 20 Z" fill="#ffb3d6"></path>
  
  <!-- Eyes -->
  <ellipse cx="24" cy="30" rx="4" ry="6" fill="#ffffff"></ellipse>
  <ellipse cx="40" cy="30" rx="4" ry="6" fill="#ffffff"></ellipse>
  <circle cx="24" cy="30" r="2" fill="#333333"></circle>
  <circle cx="40" cy="30" r="2" fill="#333333"></circle>
  
  <!-- Nose -->
  <path d="M32 36 L30 40 L34 40 Z" fill="#ffb3d6"></path>
  
  <!-- Mouth -->
  <path d="M32 40 Q28 44 26 42" stroke="#333333" stroke-width="2" fill="none" stroke-linecap="round"></path>
  <path d="M32 40 Q36 44 38 42" stroke="#333333" stroke-width="2" fill="none" stroke-linecap="round"></path>
  
  <!-- Cheeks -->
  <circle cx="16" cy="36" r="3" fill="#ffb3d6" opacity="0.6"></circle>
  <circle cx="48" cy="36" r="3" fill="#ffb3d6" opacity="0.6"></circle>
</svg><style>@media (prefers-color-scheme: light) { :root { filter: none; } }
@media (prefers-color-scheme: dark) { :root { filter: none; } }
</style></svg>